<svg width="38" height="39" viewBox="0 0 38 39" fill="none" xmlns="http://www.w3.org/2000/svg">
<rect x="0.5" y="0.522705" width="37" height="37" rx="18.5" stroke="#FCFFD8"/>
<path d="M14.7402 25.0968V12.9486C14.7402 12.6161 14.8576 12.3373 15.0924 12.1124C15.3271 11.8874 15.601 11.7749 15.914 11.7749C16.0118 11.7749 16.1145 11.7896 16.2221 11.8189C16.3297 11.8483 16.4324 11.8923 16.5302 11.951L26.0961 18.025C26.2722 18.1424 26.4042 18.2891 26.4923 18.4652C26.5803 18.6413 26.6243 18.8271 26.6243 19.0227C26.6243 19.2183 26.5803 19.4042 26.4923 19.5802C26.4042 19.7563 26.2722 19.903 26.0961 20.0204L16.5302 26.0945C16.4324 26.1532 16.3297 26.1972 16.2221 26.2265C16.1145 26.2559 16.0118 26.2705 15.914 26.2705C15.601 26.2705 15.3271 26.1581 15.0924 25.9331C14.8576 25.7081 14.7402 25.4294 14.7402 25.0968Z" fill="#FCFFD8"/>
</svg>
