<svg width="121" height="24" viewBox="0 0 121 24" fill="none" xmlns="http://www.w3.org/2000/svg">
<path d="M22.6927 23.2162H18.7499L16.506 17.1898H6.44056L4.22872 23.2162H0.285889L7.69072 0.777341H15.2558L22.6927 23.2162ZM7.62661 13.4713H15.352L11.6656 1.3864H11.2809L7.62661 13.4713Z" fill="white"/>
<path d="M24.0624 15.8435V13.279C24.041 11.9113 24.244 10.7359 24.6714 9.7529C25.1202 8.76986 25.7292 7.95779 26.4986 7.31668C27.2679 6.6542 28.1868 6.17336 29.2554 5.87418C30.3452 5.57499 31.5313 5.4254 32.8135 5.4254C34.3949 5.4254 35.7306 5.58568 36.8205 5.90623C37.9104 6.20542 38.7972 6.66488 39.4811 7.28462C40.1863 7.88299 40.7099 8.62027 41.0518 9.49646C41.3937 10.3513 41.6074 11.345 41.6929 12.4776H37.3975C37.3547 11.9861 37.2479 11.548 37.0769 11.1633C36.9273 10.7573 36.6816 10.4154 36.3396 10.1376C35.9977 9.85975 35.5382 9.64605 34.9612 9.49646C34.4056 9.34686 33.6897 9.27207 32.8135 9.27207C32.0869 9.27207 31.4458 9.37892 30.8902 9.59262C30.3346 9.78496 29.8644 10.0628 29.4797 10.4261C29.0951 10.768 28.8066 11.1847 28.6142 11.6762C28.4219 12.1678 28.3257 12.702 28.3257 13.279V15.8435C28.3257 16.3991 28.4219 16.9227 28.6142 17.4142C28.8066 17.9057 29.0951 18.3331 29.4797 18.6964C29.8644 19.0383 30.3346 19.3161 30.8902 19.5298C31.4458 19.7436 32.0869 19.8504 32.8135 19.8504C33.6897 19.8504 34.4056 19.7649 34.9612 19.594C35.5382 19.4016 35.9977 19.1452 36.3396 18.8246C36.6816 18.5041 36.9273 18.1301 37.0769 17.7027C37.2479 17.2753 37.3547 16.8158 37.3975 16.3243H41.6929C41.6074 17.4356 41.3937 18.4506 41.0518 19.3696C40.7099 20.2671 40.1863 21.0365 39.4811 21.6776C38.7972 22.3187 37.9104 22.8209 36.8205 23.1842C35.7306 23.5261 34.3949 23.6971 32.8135 23.6971C31.5313 23.6971 30.3452 23.5368 29.2554 23.2162C28.1868 22.9171 27.2679 22.4469 26.4986 21.8058C25.7292 21.1647 25.1309 20.3526 24.7035 19.3696C24.2761 18.3865 24.0624 17.2112 24.0624 15.8435Z" fill="white"/>
<path d="M52.6679 23.2162C52.1764 23.2162 51.6208 23.1521 51.001 23.0239C50.4027 22.8957 49.815 22.6499 49.238 22.2866C48.6824 21.9233 48.1802 21.4104 47.7314 20.748C47.304 20.0855 47.0262 19.22 46.8979 18.1515C46.8552 17.9164 46.8231 17.6706 46.8018 17.4142C46.7804 17.1364 46.7697 16.8586 46.7697 16.5807V10.1055H42.9551V5.90623L49.0457 6.22679L49.27 6.06651C48.7358 5.91692 48.2443 5.64979 47.7955 5.26512C47.3467 4.85908 47.0475 4.23934 46.8979 3.4059C46.8552 3.21356 46.8231 3.01055 46.8018 2.79684C46.7804 2.56177 46.7697 2.32669 46.7697 2.09162V0.13623H50.969L50.9049 3.50207C50.8835 3.99358 50.9049 4.39962 50.969 4.72018C51.0331 5.01936 51.1079 5.25444 51.1934 5.4254C51.3002 5.59636 51.4071 5.7139 51.5139 5.77801C51.6208 5.84212 51.7276 5.88486 51.8345 5.90623H59.1752V10.1055H50.969V15.1703C50.969 16.0678 51.0758 16.7944 51.2895 17.3501C51.5032 17.8843 51.8024 18.3117 52.1871 18.6323C52.5931 18.9315 53.0633 19.1345 53.5975 19.2413C54.1318 19.3268 54.7195 19.3696 55.3606 19.3696H59.2393V23.2162H52.6679Z" fill="white"/>
<path d="M67.7078 23.6971C67.1735 23.6971 66.5431 23.6116 65.8165 23.4406C65.0899 23.2697 64.3953 22.9384 63.7329 22.4469C63.0917 21.9554 62.5468 21.2929 62.098 20.4595C61.6492 19.6046 61.4249 18.4934 61.4249 17.1257V5.90623H65.6883V16.0678C65.6883 16.944 65.7844 17.6599 65.9767 18.2156C66.1691 18.7498 66.4469 19.1666 66.8102 19.4657C67.1735 19.7649 67.6116 19.9679 68.1245 20.0748C68.6374 20.1816 69.2144 20.2351 69.8555 20.2351C70.3684 20.2351 70.8278 20.1816 71.2339 20.0748C71.6399 19.9679 71.9925 19.829 72.2917 19.6581C72.6123 19.4657 72.8901 19.2627 73.1251 19.049C73.3602 18.8139 73.5632 18.5789 73.7342 18.3438C74.0975 17.7882 74.3539 17.1684 74.5035 16.4846V5.90623H78.799V23.2162H74.5035L74.8561 19.049L74.5997 18.7605C74.557 19.6153 74.3646 20.3526 74.0227 20.9723C73.6808 21.5921 73.2213 22.105 72.6443 22.511C72.0673 22.9171 71.3621 23.2162 70.5286 23.4086C69.7166 23.6009 68.7763 23.6971 67.7078 23.6971Z" fill="white"/>
<path d="M91.1148 5.4254C92.8886 5.4254 94.3631 5.66047 95.5385 6.13062C96.7352 6.5794 97.6969 7.18845 98.4235 7.95779C99.1501 8.70575 99.663 9.57125 99.9622 10.5543C100.283 11.5373 100.443 12.5738 100.443 13.6637V15.1382C100.443 16.2281 100.272 17.286 99.9301 18.3117C99.5882 19.3161 99.0432 20.2244 98.2953 21.0365C97.5473 21.8272 96.5856 22.4683 95.4103 22.9598C94.2349 23.4513 92.8031 23.6971 91.1148 23.6971C89.4266 23.6971 87.9947 23.4513 86.8194 22.9598C85.644 22.4683 84.6823 21.8272 83.9344 21.0365C83.1864 20.2244 82.6415 19.3161 82.2995 18.3117C81.979 17.286 81.8187 16.2281 81.8187 15.1382V13.6637C81.8187 12.5738 81.9683 11.5373 82.2675 10.5543C82.5667 9.57125 83.0689 8.70575 83.7741 7.95779C84.5007 7.18845 85.4624 6.5794 86.6591 6.13062C87.8558 5.66047 89.3411 5.4254 91.1148 5.4254ZM86.0821 15.1382C86.0821 16.2068 86.2424 17.0723 86.5629 17.7347C86.9049 18.3758 87.3216 18.8887 87.8131 19.2734C88.326 19.6581 88.8709 19.9145 89.4479 20.0427C90.0463 20.171 90.6019 20.2351 91.1148 20.2351C91.7132 20.2351 92.3116 20.1603 92.9099 20.0107C93.5083 19.8397 94.0532 19.5619 94.5448 19.1772C95.0363 18.7712 95.4316 18.2476 95.7308 17.6065C96.03 16.944 96.1796 16.1213 96.1796 15.1382V13.6637C96.1796 12.7875 96.03 12.0395 95.7308 11.4198C95.4316 10.8 95.0363 10.3085 94.5448 9.94523C94.0532 9.56057 93.5083 9.28275 92.9099 9.11179C92.3329 8.94083 91.7346 8.85534 91.1148 8.85534C90.5165 8.85534 89.9181 8.94083 89.3197 9.11179C88.7213 9.28275 88.1764 9.56057 87.6849 9.94523C87.1934 10.3085 86.798 10.8 86.4988 11.4198C86.221 12.0395 86.0821 12.7875 86.0821 13.6637V15.1382Z" fill="white"/>
<path d="M119.677 10.2658V10.7146H115.478V10.5222C115.478 9.85975 115.104 9.43234 114.356 9.24001C113.608 9.04768 112.849 8.95151 112.08 8.95151H111.471C110.68 8.95151 109.921 9.11179 109.195 9.43234C108.468 9.73153 108.105 10.191 108.105 10.8107V11.2275C108.105 11.8472 108.425 12.296 109.066 12.5738C109.708 12.8302 110.712 13.0012 112.08 13.0867C115.242 13.279 117.401 13.6957 118.555 14.3368C119.709 14.9566 120.286 16.1961 120.286 18.0553V18.6323C120.286 20.6838 119.452 22.0409 117.786 22.7033C116.14 23.3658 114.249 23.6971 112.112 23.6971H111.503C109.366 23.6971 107.517 23.3872 105.957 22.7675C104.397 22.1477 103.617 20.8869 103.617 18.9849V18.44H107.816V18.5041C107.816 19.1666 108.19 19.6474 108.938 19.9466C109.686 20.2458 110.594 20.3953 111.663 20.3953H112.272C113.875 20.3953 114.922 20.1389 115.413 19.626C115.905 19.1131 116.151 18.7498 116.151 18.5361V18.2156C116.151 17.6172 115.787 17.1684 115.061 16.8692C114.334 16.5701 113.105 16.3884 111.374 16.3243C109.686 16.2602 108.019 15.9076 106.374 15.2665C104.728 14.6253 103.927 13.2256 103.97 11.0672L104.002 10.4261C104.044 8.39588 104.889 7.06023 106.534 6.41912C108.201 5.75664 109.761 5.4254 111.214 5.4254H111.823C113.789 5.4254 115.584 5.73527 117.209 6.35501C118.854 6.95338 119.677 8.25697 119.677 10.2658Z" fill="white"/>
</svg>
